ISO-10303-21;
HEADER;
FILE_DESCRIPTION(('FreeCAD Model'),'2;1');
FILE_NAME('Open CASCADE Shape Model','2026-08-17T09:24:53',(''),(''),
  'Open CASCADE STEP processor 7.8','FreeCAD','Unknown');
FILE_SCHEMA(('AUTOMOTIVE_DESIGN { 1 0 10303 214 1 1 1 1 }'));
ENDSEC;
DATA;
#1 = APPLICATION_PROTOCOL_DEFINITION('international standard',
  'automotive_design',2000,#2);
#2 = APPLICATION_CONTEXT(
  'core data for automotive mechanical design processes');
#3 = SHAPE_DEFINITION_REPRESENTATION(#4,#10);
#4 = PRODUCT_DEFINITION_SHAPE('','',#5);
#5 = PRODUCT_DEFINITION('design','',#6,#9);
#6 = PRODUCT_DEFINITION_FORMATION('','',#7);
#7 = PRODUCT('Cut004','Cut004','',(#8));
#8 = PRODUCT_CONTEXT('',#2,'mechanical');
#9 = PRODUCT_DEFINITION_CONTEXT('part definition',#2,'design');
#10 = ADVANCED_BREP_SHAPE_REPRESENTATION('',(#11,#15),#708);
#11 = AXIS2_PLACEMENT_3D('',#12,#13,#14);
#12 = CARTESIAN_POINT('',(0.,0.,0.));
#13 = DIRECTION('',(0.,0.,1.));
#14 = DIRECTION('',(1.,0.,-0.));
#15 = MANIFOLD_SOLID_BREP('',#16);
#16 = CLOSED_SHELL('',(#17,#103,#177,#221,#249,#270,#304,#329,#353,#371,
    #396,#421,#455,#472,#495,#506,#526,#546,#567,#592,#617,#642,#662,
    #674,#699));
#17 = ADVANCED_FACE('',(#18),#98,.F.);
#18 = FACE_BOUND('',#19,.T.);
#19 = EDGE_LOOP('',(#20,#31,#39,#48,#56,#65));
#20 = ORIENTED_EDGE('',*,*,#21,.F.);
#21 = EDGE_CURVE('',#22,#24,#26,.T.);
#22 = VERTEX_POINT('',#23);
#23 = CARTESIAN_POINT('',(-24.99999999999,23.043437243616,0.));
#24 = VERTEX_POINT('',#25);
#25 = CARTESIAN_POINT('',(-4.999999999999,-33.6303434416,
    4.004337778576E-15));
#26 = CIRCLE('',#27,34.);
#27 = AXIS2_PLACEMENT_3D('',#28,#29,#30);
#28 = CARTESIAN_POINT('',(0.,0.,0.));
#29 = DIRECTION('',(0.,0.,1.));
#30 = DIRECTION('',(1.,0.,0.));
#31 = ORIENTED_EDGE('',*,*,#32,.T.);
#32 = EDGE_CURVE('',#22,#33,#35,.T.);
#33 = VERTEX_POINT('',#34);
#34 = CARTESIAN_POINT('',(-24.99999999999,23.043437243616,150.));
#35 = LINE('',#36,#37);
#36 = CARTESIAN_POINT('',(-24.99999999999,23.043437243616,0.));
#37 = VECTOR('',#38,1.);
#38 = DIRECTION('',(0.,0.,1.));
#39 = ORIENTED_EDGE('',*,*,#40,.T.);
#40 = EDGE_CURVE('',#33,#41,#43,.T.);
#41 = VERTEX_POINT('',#42);
#42 = CARTESIAN_POINT('',(24.999999999991,23.043437243616,150.));
#43 = CIRCLE('',#44,34.);
#44 = AXIS2_PLACEMENT_3D('',#45,#46,#47);
#45 = CARTESIAN_POINT('',(0.,0.,150.));
#46 = DIRECTION('',(0.,0.,1.));
#47 = DIRECTION('',(1.,0.,0.));
#48 = ORIENTED_EDGE('',*,*,#49,.F.);
#49 = EDGE_CURVE('',#50,#41,#52,.T.);
#50 = VERTEX_POINT('',#51);
#51 = CARTESIAN_POINT('',(24.999999999991,23.043437243616,0.));
#52 = LINE('',#53,#54);
#53 = CARTESIAN_POINT('',(24.999999999991,23.043437243616,0.));
#54 = VECTOR('',#55,1.);
#55 = DIRECTION('',(0.,0.,1.));
#56 = ORIENTED_EDGE('',*,*,#57,.F.);
#57 = EDGE_CURVE('',#58,#50,#60,.T.);
#58 = VERTEX_POINT('',#59);
#59 = CARTESIAN_POINT('',(4.999999999999,-33.6303434416,
    3.699337778576E-15));
#60 = CIRCLE('',#61,34.);
#61 = AXIS2_PLACEMENT_3D('',#62,#63,#64);
#62 = CARTESIAN_POINT('',(0.,0.,0.));
#63 = DIRECTION('',(0.,0.,1.));
#64 = DIRECTION('',(1.,0.,0.));
#65 = ORIENTED_EDGE('',*,*,#66,.T.);
#66 = EDGE_CURVE('',#58,#24,#67,.T.);
#67 = B_SPLINE_CURVE_WITH_KNOTS('',8,(#68,#69,#70,#71,#72,#73,#74,#75,
    #76,#77,#78,#79,#80,#81,#82,#83,#84,#85,#86,#87,#88,#89,#90,#91,#92,
    #93,#94,#95,#96,#97),.UNSPECIFIED.,.F.,.F.,(9,7,7,7,9),(0.,
    0.219172153323,0.406430806812,0.67224613147,1.),.UNSPECIFIED.);
#68 = CARTESIAN_POINT('',(5.,-33.6303434416,-8.623322356299E-15));
#69 = CARTESIAN_POINT('',(5.,-33.6303434416,0.376188400908));
#70 = CARTESIAN_POINT('',(4.967653482084,-33.63515256515,0.752135762605)
  );
#71 = CARTESIAN_POINT('',(4.903030637614,-33.6447603963,1.126326115688)
  );
#72 = CARTESIAN_POINT('',(4.805768267641,-33.65904281173,1.497156790601)
  );
#73 = CARTESIAN_POINT('',(4.675121866106,-33.6777563072,1.862797185184)
  );
#74 = CARTESIAN_POINT('',(4.510020394462,-33.70050377958,2.221019168394)
  );
#75 = CARTESIAN_POINT('',(4.309130187917,-33.72668023183,2.568989474222)
  );
#76 = CARTESIAN_POINT('',(3.867422191842,-33.77995063968,3.18840227014)
  );
#77 = CARTESIAN_POINT('',(3.635827353185,-33.80645849436,3.464802347383)
  );
#78 = CARTESIAN_POINT('',(3.375283494645,-33.8343522548,3.72908638437));
#79 = CARTESIAN_POINT('',(3.085159761959,-33.86286203967,3.97770751806)
  );
#80 = CARTESIAN_POINT('',(2.76511870822,-33.89101878036,4.206666313768)
  );
#81 = CARTESIAN_POINT('',(2.415214982948,-33.91765250305,4.411448324191)
  );
#82 = CARTESIAN_POINT('',(2.036050643993,-33.94142847448,4.586922853627)
  );
#83 = CARTESIAN_POINT('',(1.051194920757,-33.98866898567,4.926306698944)
  );
#84 = CARTESIAN_POINT('',(0.427547688842,-34.00732267081,5.050918048481)
  );
#85 = CARTESIAN_POINT('',(-0.22074638463,-34.01280570478,5.083852891657)
  );
#86 = CARTESIAN_POINT('',(-0.86846293433,-34.00279619491,5.018761028346)
  );
#87 = CARTESIAN_POINT('',(-1.489986919279,-33.97832777788,4.859570674236
    ));
#88 = CARTESIAN_POINT('',(-2.061656296546,-33.94411229502,4.620159043308
    ));
#89 = CARTESIAN_POINT('',(-2.565969459465,-33.90573742359,4.324241998118
    ));
#90 = CARTESIAN_POINT('',(-3.518108776017,-33.82161259483,3.612972383659
    ));
#91 = CARTESIAN_POINT('',(-3.95703308452,-33.77343174654,3.162217707121)
  );
#92 = CARTESIAN_POINT('',(-4.312927074922,-33.72857024964,2.673438678226
    ));
#93 = CARTESIAN_POINT('',(-4.591026165683,-33.69035967355,2.15972640427)
  );
#94 = CARTESIAN_POINT('',(-4.796120328157,-33.66065413331,1.630109452303
    ));
#95 = CARTESIAN_POINT('',(-4.931818374172,-33.64048059786,1.0908091839)
  );
#96 = CARTESIAN_POINT('',(-5.,-33.6303434416,0.546161294932));
#97 = CARTESIAN_POINT('',(-5.,-33.6303434416,-5.561705358431E-15));
#98 = CYLINDRICAL_SURFACE('',#99,34.);
#99 = AXIS2_PLACEMENT_3D('',#100,#101,#102);
#100 = CARTESIAN_POINT('',(0.,0.,0.));
#101 = DIRECTION('',(-0.,-0.,-1.));
#102 = DIRECTION('',(1.,0.,0.));
#103 = ADVANCED_FACE('',(#104),#172,.F.);
#104 = FACE_BOUND('',#105,.F.);
#105 = EDGE_LOOP('',(#106,#107,#113,#114,#122,#131,#140,#148,#157,#166)
  );
#106 = ORIENTED_EDGE('',*,*,#21,.F.);
#107 = ORIENTED_EDGE('',*,*,#108,.T.);
#108 = EDGE_CURVE('',#22,#50,#109,.T.);
#109 = LINE('',#110,#111);
#110 = CARTESIAN_POINT('',(-24.99999999999,23.043437243616,0.));
#111 = VECTOR('',#112,1.);
#112 = DIRECTION('',(1.,0.,0.));
#113 = ORIENTED_EDGE('',*,*,#57,.F.);
#114 = ORIENTED_EDGE('',*,*,#115,.T.);
#115 = EDGE_CURVE('',#58,#116,#118,.T.);
#116 = VERTEX_POINT('',#117);
#117 = CARTESIAN_POINT('',(5.,-36.66060555964,4.032666611561E-15));
#118 = LINE('',#119,#120);
#119 = CARTESIAN_POINT('',(5.,0.,0.));
#120 = VECTOR('',#121,1.);
#121 = DIRECTION('',(0.,-1.,2.2E-16));
#122 = ORIENTED_EDGE('',*,*,#123,.T.);
#123 = EDGE_CURVE('',#116,#124,#126,.T.);
#124 = VERTEX_POINT('',#125);
#125 = CARTESIAN_POINT('',(27.205882352931,25.076681706288,0.));
#126 = CIRCLE('',#127,37.);
#127 = AXIS2_PLACEMENT_3D('',#128,#129,#130);
#128 = CARTESIAN_POINT('',(0.,0.,0.));
#129 = DIRECTION('',(0.,0.,1.));
#130 = DIRECTION('',(1.,0.,0.));
#131 = ORIENTED_EDGE('',*,*,#132,.T.);
#132 = EDGE_CURVE('',#124,#133,#135,.T.);
#133 = VERTEX_POINT('',#134);
#134 = CARTESIAN_POINT('',(24.999999999991,26.043437243616,0.));
#135 = CIRCLE('',#136,3.);
#136 = AXIS2_PLACEMENT_3D('',#137,#138,#139);
#137 = CARTESIAN_POINT('',(24.999999999991,23.043437243616,0.));
#138 = DIRECTION('',(-0.,0.,1.));
#139 = DIRECTION('',(0.677748154224,-0.735294117647,0.));
#140 = ORIENTED_EDGE('',*,*,#141,.F.);
#141 = EDGE_CURVE('',#142,#133,#144,.T.);
#142 = VERTEX_POINT('',#143);
#143 = CARTESIAN_POINT('',(-24.99999999999,26.043437243616,0.));
#144 = LINE('',#145,#146);
#145 = CARTESIAN_POINT('',(-24.99999999999,26.043437243616,0.));
#146 = VECTOR('',#147,1.);
#147 = DIRECTION('',(1.,0.,0.));
#148 = ORIENTED_EDGE('',*,*,#149,.F.);
#149 = EDGE_CURVE('',#150,#142,#152,.T.);
#150 = VERTEX_POINT('',#151);
#151 = CARTESIAN_POINT('',(-27.20588235293,25.076681706288,0.));
#152 = CIRCLE('',#153,3.);
#153 = AXIS2_PLACEMENT_3D('',#154,#155,#156);
#154 = CARTESIAN_POINT('',(-24.99999999999,23.043437243616,0.));
#155 = DIRECTION('',(-0.,0.,-1.));
#156 = DIRECTION('',(-0.677748154224,-0.735294117647,0.));
#157 = ORIENTED_EDGE('',*,*,#158,.T.);
#158 = EDGE_CURVE('',#150,#159,#161,.T.);
#159 = VERTEX_POINT('',#160);
#160 = CARTESIAN_POINT('',(-5.,-36.66060555964,4.337666611561E-15));
#161 = CIRCLE('',#162,37.);
#162 = AXIS2_PLACEMENT_3D('',#163,#164,#165);
#163 = CARTESIAN_POINT('',(0.,0.,0.));
#164 = DIRECTION('',(0.,0.,1.));
#165 = DIRECTION('',(1.,0.,0.));
#166 = ORIENTED_EDGE('',*,*,#167,.F.);
#167 = EDGE_CURVE('',#24,#159,#168,.T.);
#168 = LINE('',#169,#170);
#169 = CARTESIAN_POINT('',(-5.,0.,6.1E-16));
#170 = VECTOR('',#171,1.);
#171 = DIRECTION('',(0.,-1.,2.2E-16));
#172 = PLANE('',#173);
#173 = AXIS2_PLACEMENT_3D('',#174,#175,#176);
#174 = CARTESIAN_POINT('',(3.55E-15,-0.343810623838,0.));
#175 = DIRECTION('',(0.,0.,1.));
#176 = DIRECTION('',(1.,0.,0.));
#177 = ADVANCED_FACE('',(#178),#216,.F.);
#178 = FACE_BOUND('',#179,.T.);
#179 = EDGE_LOOP('',(#180,#181,#182,#215));
#180 = ORIENTED_EDGE('',*,*,#66,.F.);
#181 = ORIENTED_EDGE('',*,*,#115,.T.);
#182 = ORIENTED_EDGE('',*,*,#183,.T.);
#183 = EDGE_CURVE('',#116,#159,#184,.T.);
#184 = B_SPLINE_CURVE_WITH_KNOTS('',8,(#185,#186,#187,#188,#189,#190,
    #191,#192,#193,#194,#195,#196,#197,#198,#199,#200,#201,#202,#203,
    #204,#205,#206,#207,#208,#209,#210,#211,#212,#213,#214),
  .UNSPECIFIED.,.F.,.F.,(9,7,7,7,9),(0.,0.219241983653,0.406487960941,
    0.672312806961,1.),.UNSPECIFIED.);
#185 = CARTESIAN_POINT('',(5.,-36.66060555964,-9.28998002227E-15));
#186 = CARTESIAN_POINT('',(5.,-36.66060555964,0.376120582399));
#187 = CARTESIAN_POINT('',(4.967665144349,-36.66501558339,0.752001204516
    ));
#188 = CARTESIAN_POINT('',(4.903065284313,-36.67382612622,1.126138219344
    ));
#189 = CARTESIAN_POINT('',(4.805831669491,-36.68692474892,1.496940242719
    ));
#190 = CARTESIAN_POINT('',(4.675209744013,-36.70409079716,1.862584770037
    ));
#191 = CARTESIAN_POINT('',(4.51011533557,-36.72496327601,2.220846967793)
  );
#192 = CARTESIAN_POINT('',(4.309200393671,-36.74898989491,2.568891023791
    ));
#193 = CARTESIAN_POINT('',(3.86744082422,-36.79789149597,3.188376141717)
  );
#194 = CARTESIAN_POINT('',(3.635843317462,-36.82222603349,3.464788814326
    ));
#195 = CARTESIAN_POINT('',(3.375276962869,-36.8478384443,3.729101318162)
  );
#196 = CARTESIAN_POINT('',(3.085118706438,-36.87402118442,3.977748945398
    ));
#197 = CARTESIAN_POINT('',(2.76504385872,-36.89988292332,4.206720315076)
  );
#198 = CARTESIAN_POINT('',(2.415123472071,-36.92434735837,4.411495843099
    ));
#199 = CARTESIAN_POINT('',(2.035978031645,-36.94618713639,4.586947876031
    ));
#200 = CARTESIAN_POINT('',(1.051238190613,-36.98958446101,4.926291788039
    ));
#201 = CARTESIAN_POINT('',(0.427678373513,-37.00672397266,5.050886527061
    ));
#202 = CARTESIAN_POINT('',(-0.220517880414,-37.01176670375,5.08383742706
    ));
#203 = CARTESIAN_POINT('',(-0.868151840948,-37.00257398057,
    5.018792164947));
#204 = CARTESIAN_POINT('',(-1.489620180635,-36.98009526078,
    4.859669111453));
#205 = CARTESIAN_POINT('',(-2.061295515138,-36.9486674924,4.62033195631)
  );
#206 = CARTESIAN_POINT('',(-2.565714861375,-36.91341670844,
    4.324432188653));
#207 = CARTESIAN_POINT('',(-3.518296842713,-36.83612379661,
    3.612831893581));
#208 = CARTESIAN_POINT('',(-3.957307460488,-36.79187366227,
    3.161924841396));
#209 = CARTESIAN_POINT('',(-4.313200346941,-36.75069230723,
    2.673027616498));
#210 = CARTESIAN_POINT('',(-4.591236906034,-36.71563575454,
    2.159263138657));
#211 = CARTESIAN_POINT('',(-4.796243286052,-36.68839406686,1.62967418547
    ));
#212 = CARTESIAN_POINT('',(-4.931862680793,-36.66989876812,
    1.090476636939));
#213 = CARTESIAN_POINT('',(-5.,-36.66060555964,0.545983759745));
#214 = CARTESIAN_POINT('',(-5.,-36.66060555964,-6.228363024401E-15));
#215 = ORIENTED_EDGE('',*,*,#167,.F.);
#216 = CYLINDRICAL_SURFACE('',#217,5.);
#217 = AXIS2_PLACEMENT_3D('',#218,#219,#220);
#218 = CARTESIAN_POINT('',(0.,0.,0.));
#219 = DIRECTION('',(0.,1.,2.2E-16));
#220 = DIRECTION('',(1.,0.,0.));
#221 = ADVANCED_FACE('',(#222,#233),#244,.F.);
#222 = FACE_BOUND('',#223,.F.);
#223 = EDGE_LOOP('',(#224,#225,#231,#232));
#224 = ORIENTED_EDGE('',*,*,#32,.T.);
#225 = ORIENTED_EDGE('',*,*,#226,.T.);
#226 = EDGE_CURVE('',#33,#41,#227,.T.);
#227 = LINE('',#228,#229);
#228 = CARTESIAN_POINT('',(-24.99999999999,23.043437243616,150.));
#229 = VECTOR('',#230,1.);
#230 = DIRECTION('',(1.,0.,0.));
#231 = ORIENTED_EDGE('',*,*,#49,.F.);
#232 = ORIENTED_EDGE('',*,*,#108,.F.);
#233 = FACE_BOUND('',#234,.F.);
#234 = EDGE_LOOP('',(#235));
#235 = ORIENTED_EDGE('',*,*,#236,.T.);
#236 = EDGE_CURVE('',#237,#237,#239,.T.);
#237 = VERTEX_POINT('',#238);
#238 = CARTESIAN_POINT('',(22.4,23.043437243616,120.));
#239 = CIRCLE('',#240,22.4);
#240 = AXIS2_PLACEMENT_3D('',#241,#242,#243);
#241 = CARTESIAN_POINT('',(0.,23.043437243616,120.));
#242 = DIRECTION('',(0.,-1.,2.22044604925E-16));
#243 = DIRECTION('',(1.,0.,0.));
#244 = PLANE('',#245);
#245 = AXIS2_PLACEMENT_3D('',#246,#247,#248);
#246 = CARTESIAN_POINT('',(-24.99999999999,23.043437243616,0.));
#247 = DIRECTION('',(0.,1.,0.));
#248 = DIRECTION('',(1.,0.,0.));
#249 = ADVANCED_FACE('',(#250,#254),#265,.F.);
#250 = FACE_BOUND('',#251,.F.);
#251 = EDGE_LOOP('',(#252,#253));
#252 = ORIENTED_EDGE('',*,*,#40,.T.);
#253 = ORIENTED_EDGE('',*,*,#226,.F.);
#254 = FACE_BOUND('',#255,.F.);
#255 = EDGE_LOOP('',(#256));
#256 = ORIENTED_EDGE('',*,*,#257,.T.);
#257 = EDGE_CURVE('',#258,#258,#260,.T.);
#258 = VERTEX_POINT('',#259);
#259 = CARTESIAN_POINT('',(22.4,0.,150.));
#260 = CIRCLE('',#261,22.4);
#261 = AXIS2_PLACEMENT_3D('',#262,#263,#264);
#262 = CARTESIAN_POINT('',(0.,0.,150.));
#263 = DIRECTION('',(0.,0.,-1.));
#264 = DIRECTION('',(1.,0.,0.));
#265 = PLANE('',#266);
#266 = AXIS2_PLACEMENT_3D('',#267,#268,#269);
#267 = CARTESIAN_POINT('',(3.55E-15,-0.343810623838,150.));
#268 = DIRECTION('',(0.,0.,1.));
#269 = DIRECTION('',(1.,0.,0.));
#270 = ADVANCED_FACE('',(#271),#299,.T.);
#271 = FACE_BOUND('',#272,.F.);
#272 = EDGE_LOOP('',(#273,#281,#290,#296,#297,#298));
#273 = ORIENTED_EDGE('',*,*,#274,.T.);
#274 = EDGE_CURVE('',#150,#275,#277,.T.);
#275 = VERTEX_POINT('',#276);
#276 = CARTESIAN_POINT('',(-27.20588235293,25.076681706288,150.));
#277 = LINE('',#278,#279);
#278 = CARTESIAN_POINT('',(-27.20588235293,25.076681706288,0.));
#279 = VECTOR('',#280,1.);
#280 = DIRECTION('',(0.,0.,1.));
#281 = ORIENTED_EDGE('',*,*,#282,.T.);
#282 = EDGE_CURVE('',#275,#283,#285,.T.);
#283 = VERTEX_POINT('',#284);
#284 = CARTESIAN_POINT('',(27.205882352931,25.076681706288,150.));
#285 = CIRCLE('',#286,37.);
#286 = AXIS2_PLACEMENT_3D('',#287,#288,#289);
#287 = CARTESIAN_POINT('',(0.,0.,150.));
#288 = DIRECTION('',(0.,0.,1.));
#289 = DIRECTION('',(1.,0.,0.));
#290 = ORIENTED_EDGE('',*,*,#291,.F.);
#291 = EDGE_CURVE('',#124,#283,#292,.T.);
#292 = LINE('',#293,#294);
#293 = CARTESIAN_POINT('',(27.205882352931,25.076681706288,0.));
#294 = VECTOR('',#295,1.);
#295 = DIRECTION('',(0.,0.,1.));
#296 = ORIENTED_EDGE('',*,*,#123,.F.);
#297 = ORIENTED_EDGE('',*,*,#183,.T.);
#298 = ORIENTED_EDGE('',*,*,#158,.F.);
#299 = CYLINDRICAL_SURFACE('',#300,37.);
#300 = AXIS2_PLACEMENT_3D('',#301,#302,#303);
#301 = CARTESIAN_POINT('',(0.,0.,0.));
#302 = DIRECTION('',(-0.,-0.,-1.));
#303 = DIRECTION('',(1.,0.,0.));
#304 = ADVANCED_FACE('',(#305),#324,.T.);
#305 = FACE_BOUND('',#306,.F.);
#306 = EDGE_LOOP('',(#307,#315,#322,#323));
#307 = ORIENTED_EDGE('',*,*,#308,.T.);
#308 = EDGE_CURVE('',#142,#309,#311,.T.);
#309 = VERTEX_POINT('',#310);
#310 = CARTESIAN_POINT('',(-24.99999999999,26.043437243616,150.));
#311 = LINE('',#312,#313);
#312 = CARTESIAN_POINT('',(-24.99999999999,26.043437243616,0.));
#313 = VECTOR('',#314,1.);
#314 = DIRECTION('',(0.,0.,1.));
#315 = ORIENTED_EDGE('',*,*,#316,.F.);
#316 = EDGE_CURVE('',#275,#309,#317,.T.);
#317 = CIRCLE('',#318,3.);
#318 = AXIS2_PLACEMENT_3D('',#319,#320,#321);
#319 = CARTESIAN_POINT('',(-24.99999999999,23.043437243616,150.));
#320 = DIRECTION('',(-0.,0.,-1.));
#321 = DIRECTION('',(-0.677748154224,-0.735294117647,0.));
#322 = ORIENTED_EDGE('',*,*,#274,.F.);
#323 = ORIENTED_EDGE('',*,*,#149,.T.);
#324 = CYLINDRICAL_SURFACE('',#325,3.);
#325 = AXIS2_PLACEMENT_3D('',#326,#327,#328);
#326 = CARTESIAN_POINT('',(-24.99999999999,23.043437243616,0.));
#327 = DIRECTION('',(0.,0.,1.));
#328 = DIRECTION('',(-0.677748154224,-0.735294117647,0.));
#329 = ADVANCED_FACE('',(#330),#348,.T.);
#330 = FACE_BOUND('',#331,.T.);
#331 = EDGE_LOOP('',(#332,#333,#334,#342));
#332 = ORIENTED_EDGE('',*,*,#141,.F.);
#333 = ORIENTED_EDGE('',*,*,#308,.T.);
#334 = ORIENTED_EDGE('',*,*,#335,.T.);
#335 = EDGE_CURVE('',#309,#336,#338,.T.);
#336 = VERTEX_POINT('',#337);
#337 = CARTESIAN_POINT('',(24.999999999991,26.043437243616,150.));
#338 = LINE('',#339,#340);
#339 = CARTESIAN_POINT('',(-24.99999999999,26.043437243616,150.));
#340 = VECTOR('',#341,1.);
#341 = DIRECTION('',(1.,0.,0.));
#342 = ORIENTED_EDGE('',*,*,#343,.F.);
#343 = EDGE_CURVE('',#133,#336,#344,.T.);
#344 = LINE('',#345,#346);
#345 = CARTESIAN_POINT('',(24.999999999991,26.043437243616,0.));
#346 = VECTOR('',#347,1.);
#347 = DIRECTION('',(0.,0.,1.));
#348 = PLANE('',#349);
#349 = AXIS2_PLACEMENT_3D('',#350,#351,#352);
#350 = CARTESIAN_POINT('',(-24.99999999999,26.043437243616,0.));
#351 = DIRECTION('',(0.,1.,0.));
#352 = DIRECTION('',(1.,0.,0.));
#353 = ADVANCED_FACE('',(#354),#366,.T.);
#354 = FACE_BOUND('',#355,.T.);
#355 = EDGE_LOOP('',(#356,#357,#364,#365));
#356 = ORIENTED_EDGE('',*,*,#343,.T.);
#357 = ORIENTED_EDGE('',*,*,#358,.F.);
#358 = EDGE_CURVE('',#283,#336,#359,.T.);
#359 = CIRCLE('',#360,3.);
#360 = AXIS2_PLACEMENT_3D('',#361,#362,#363);
#361 = CARTESIAN_POINT('',(24.999999999991,23.043437243616,150.));
#362 = DIRECTION('',(-0.,0.,1.));
#363 = DIRECTION('',(0.677748154224,-0.735294117647,0.));
#364 = ORIENTED_EDGE('',*,*,#291,.F.);
#365 = ORIENTED_EDGE('',*,*,#132,.T.);
#366 = CYLINDRICAL_SURFACE('',#367,3.);
#367 = AXIS2_PLACEMENT_3D('',#368,#369,#370);
#368 = CARTESIAN_POINT('',(24.999999999991,23.043437243616,0.));
#369 = DIRECTION('',(0.,0.,1.));
#370 = DIRECTION('',(0.677748154224,-0.735294117647,0.));
#371 = ADVANCED_FACE('',(#372),#391,.F.);
#372 = FACE_BOUND('',#373,.F.);
#373 = EDGE_LOOP('',(#374,#382,#389,#390));
#374 = ORIENTED_EDGE('',*,*,#375,.T.);
#375 = EDGE_CURVE('',#237,#376,#378,.T.);
#376 = VERTEX_POINT('',#377);
#377 = CARTESIAN_POINT('',(22.4,25.543437243616,120.));
#378 = LINE('',#379,#380);
#379 = CARTESIAN_POINT('',(22.4,23.043437243616,120.));
#380 = VECTOR('',#381,1.);
#381 = DIRECTION('',(0.,1.,-2.22044604925E-16));
#382 = ORIENTED_EDGE('',*,*,#383,.T.);
#383 = EDGE_CURVE('',#376,#376,#384,.T.);
#384 = CIRCLE('',#385,22.4);
#385 = AXIS2_PLACEMENT_3D('',#386,#387,#388);
#386 = CARTESIAN_POINT('',(0.,25.543437243616,120.));
#387 = DIRECTION('',(0.,-1.,2.22044604925E-16));
#388 = DIRECTION('',(1.,0.,0.));
#389 = ORIENTED_EDGE('',*,*,#375,.F.);
#390 = ORIENTED_EDGE('',*,*,#236,.F.);
#391 = CYLINDRICAL_SURFACE('',#392,22.4);
#392 = AXIS2_PLACEMENT_3D('',#393,#394,#395);
#393 = CARTESIAN_POINT('',(0.,23.043437243616,120.));
#394 = DIRECTION('',(0.,-1.,2.22044604925E-16));
#395 = DIRECTION('',(1.,0.,0.));
#396 = ADVANCED_FACE('',(#397),#416,.F.);
#397 = FACE_BOUND('',#398,.F.);
#398 = EDGE_LOOP('',(#399,#407,#414,#415));
#399 = ORIENTED_EDGE('',*,*,#400,.T.);
#400 = EDGE_CURVE('',#258,#401,#403,.T.);
#401 = VERTEX_POINT('',#402);
#402 = CARTESIAN_POINT('',(22.4,0.,152.5));
#403 = LINE('',#404,#405);
#404 = CARTESIAN_POINT('',(22.4,0.,150.));
#405 = VECTOR('',#406,1.);
#406 = DIRECTION('',(0.,0.,1.));
#407 = ORIENTED_EDGE('',*,*,#408,.T.);
#408 = EDGE_CURVE('',#401,#401,#409,.T.);
#409 = CIRCLE('',#410,22.4);
#410 = AXIS2_PLACEMENT_3D('',#411,#412,#413);
#411 = CARTESIAN_POINT('',(0.,0.,152.5));
#412 = DIRECTION('',(0.,0.,-1.));
#413 = DIRECTION('',(1.,0.,0.));
#414 = ORIENTED_EDGE('',*,*,#400,.F.);
#415 = ORIENTED_EDGE('',*,*,#257,.F.);
#416 = CYLINDRICAL_SURFACE('',#417,22.4);
#417 = AXIS2_PLACEMENT_3D('',#418,#419,#420);
#418 = CARTESIAN_POINT('',(0.,0.,150.));
#419 = DIRECTION('',(0.,0.,-1.));
#420 = DIRECTION('',(1.,0.,0.));
#421 = ADVANCED_FACE('',(#422),#450,.T.);
#422 = FACE_BOUND('',#423,.F.);
#423 = EDGE_LOOP('',(#424,#425,#434,#443));
#424 = ORIENTED_EDGE('',*,*,#282,.F.);
#425 = ORIENTED_EDGE('',*,*,#426,.T.);
#426 = EDGE_CURVE('',#275,#427,#429,.T.);
#427 = VERTEX_POINT('',#428);
#428 = CARTESIAN_POINT('',(-24.99999999999,23.043437243616,153.));
#429 = CIRCLE('',#430,3.);
#430 = AXIS2_PLACEMENT_3D('',#431,#432,#433);
#431 = CARTESIAN_POINT('',(-24.99999999999,23.043437243616,150.));
#432 = DIRECTION('',(0.677748154224,0.735294117647,-0.));
#433 = DIRECTION('',(-0.735294117647,0.677748154224,0.));
#434 = ORIENTED_EDGE('',*,*,#435,.T.);
#435 = EDGE_CURVE('',#427,#436,#438,.T.);
#436 = VERTEX_POINT('',#437);
#437 = CARTESIAN_POINT('',(24.999999999991,23.043437243616,153.));
#438 = CIRCLE('',#439,34.);
#439 = AXIS2_PLACEMENT_3D('',#440,#441,#442);
#440 = CARTESIAN_POINT('',(0.,0.,153.));
#441 = DIRECTION('',(0.,0.,1.));
#442 = DIRECTION('',(1.,0.,0.));
#443 = ORIENTED_EDGE('',*,*,#444,.F.);
#444 = EDGE_CURVE('',#283,#436,#445,.T.);
#445 = CIRCLE('',#446,3.);
#446 = AXIS2_PLACEMENT_3D('',#447,#448,#449);
#447 = CARTESIAN_POINT('',(24.999999999991,23.043437243616,150.));
#448 = DIRECTION('',(0.677748154224,-0.735294117647,0.));
#449 = DIRECTION('',(0.735294117647,0.677748154224,0.));
#450 = TOROIDAL_SURFACE('',#451,34.,3.);
#451 = AXIS2_PLACEMENT_3D('',#452,#453,#454);
#452 = CARTESIAN_POINT('',(0.,0.,150.));
#453 = DIRECTION('',(0.,0.,1.));
#454 = DIRECTION('',(1.,0.,0.));
#455 = ADVANCED_FACE('',(#456),#467,.T.);
#456 = FACE_BOUND('',#457,.T.);
#457 = EDGE_LOOP('',(#458,#459,#460));
#458 = ORIENTED_EDGE('',*,*,#316,.F.);
#459 = ORIENTED_EDGE('',*,*,#426,.T.);
#460 = ORIENTED_EDGE('',*,*,#461,.F.);
#461 = EDGE_CURVE('',#309,#427,#462,.T.);
#462 = CIRCLE('',#463,3.);
#463 = AXIS2_PLACEMENT_3D('',#464,#465,#466);
#464 = CARTESIAN_POINT('',(-24.99999999999,23.043437243616,150.));
#465 = DIRECTION('',(1.,-0.,0.));
#466 = DIRECTION('',(0.,1.1E-16,-1.));
#467 = SPHERICAL_SURFACE('',#468,3.);
#468 = AXIS2_PLACEMENT_3D('',#469,#470,#471);
#469 = CARTESIAN_POINT('',(-24.99999999999,23.043437243616,150.));
#470 = DIRECTION('',(-0.884021316447,0.,-0.467446587394));
#471 = DIRECTION('',(0.319718112577,-0.729512803617,-0.604641544925));
#472 = ADVANCED_FACE('',(#473),#490,.T.);
#473 = FACE_BOUND('',#474,.T.);
#474 = EDGE_LOOP('',(#475,#476,#477,#483));
#475 = ORIENTED_EDGE('',*,*,#335,.F.);
#476 = ORIENTED_EDGE('',*,*,#461,.T.);
#477 = ORIENTED_EDGE('',*,*,#478,.T.);
#478 = EDGE_CURVE('',#427,#436,#479,.T.);
#479 = LINE('',#480,#481);
#480 = CARTESIAN_POINT('',(-24.99999999999,23.043437243616,153.));
#481 = VECTOR('',#482,1.);
#482 = DIRECTION('',(1.,0.,0.));
#483 = ORIENTED_EDGE('',*,*,#484,.F.);
#484 = EDGE_CURVE('',#336,#436,#485,.T.);
#485 = CIRCLE('',#486,3.);
#486 = AXIS2_PLACEMENT_3D('',#487,#488,#489);
#487 = CARTESIAN_POINT('',(24.999999999991,23.043437243616,150.));
#488 = DIRECTION('',(1.,-0.,0.));
#489 = DIRECTION('',(0.,1.1E-16,-1.));
#490 = CYLINDRICAL_SURFACE('',#491,3.);
#491 = AXIS2_PLACEMENT_3D('',#492,#493,#494);
#492 = CARTESIAN_POINT('',(-24.99999999999,23.043437243616,150.));
#493 = DIRECTION('',(1.,0.,0.));
#494 = DIRECTION('',(0.,1.1E-16,-1.));
#495 = ADVANCED_FACE('',(#496),#501,.T.);
#496 = FACE_BOUND('',#497,.T.);
#497 = EDGE_LOOP('',(#498,#499,#500));
#498 = ORIENTED_EDGE('',*,*,#358,.T.);
#499 = ORIENTED_EDGE('',*,*,#484,.T.);
#500 = ORIENTED_EDGE('',*,*,#444,.F.);
#501 = SPHERICAL_SURFACE('',#502,3.);
#502 = AXIS2_PLACEMENT_3D('',#503,#504,#505);
#503 = CARTESIAN_POINT('',(24.999999999991,23.043437243616,150.));
#504 = DIRECTION('',(-0.884021316447,0.,0.467446587394));
#505 = DIRECTION('',(-0.319718112577,-0.729512803617,-0.604641544925));
#506 = ADVANCED_FACE('',(#507,#510),#521,.F.);
#507 = FACE_BOUND('',#508,.T.);
#508 = EDGE_LOOP('',(#509));
#509 = ORIENTED_EDGE('',*,*,#383,.T.);
#510 = FACE_BOUND('',#511,.F.);
#511 = EDGE_LOOP('',(#512));
#512 = ORIENTED_EDGE('',*,*,#513,.T.);
#513 = EDGE_CURVE('',#514,#514,#516,.T.);
#514 = VERTEX_POINT('',#515);
#515 = CARTESIAN_POINT('',(16.2,25.543437243616,120.));
#516 = CIRCLE('',#517,16.2);
#517 = AXIS2_PLACEMENT_3D('',#518,#519,#520);
#518 = CARTESIAN_POINT('',(0.,25.543437243616,120.));
#519 = DIRECTION('',(0.,-1.,2.22044604925E-16));
#520 = DIRECTION('',(1.,0.,0.));
#521 = PLANE('',#522);
#522 = AXIS2_PLACEMENT_3D('',#523,#524,#525);
#523 = CARTESIAN_POINT('',(-1.133629125421E-15,25.543437243616,120.));
#524 = DIRECTION('',(0.,1.,-2.340641754386E-16));
#525 = DIRECTION('',(0.,2.340641754386E-16,1.));
#526 = ADVANCED_FACE('',(#527,#530),#541,.F.);
#527 = FACE_BOUND('',#528,.T.);
#528 = EDGE_LOOP('',(#529));
#529 = ORIENTED_EDGE('',*,*,#408,.T.);
#530 = FACE_BOUND('',#531,.F.);
#531 = EDGE_LOOP('',(#532));
#532 = ORIENTED_EDGE('',*,*,#533,.T.);
#533 = EDGE_CURVE('',#534,#534,#536,.T.);
#534 = VERTEX_POINT('',#535);
#535 = CARTESIAN_POINT('',(16.2,0.,152.5));
#536 = CIRCLE('',#537,16.2);
#537 = AXIS2_PLACEMENT_3D('',#538,#539,#540);
#538 = CARTESIAN_POINT('',(0.,0.,152.5));
#539 = DIRECTION('',(0.,0.,-1.));
#540 = DIRECTION('',(1.,0.,0.));
#541 = PLANE('',#542);
#542 = AXIS2_PLACEMENT_3D('',#543,#544,#545);
#543 = CARTESIAN_POINT('',(-1.133629125421E-15,-1.139492101105E-15,152.5
    ));
#544 = DIRECTION('',(0.,0.,1.));
#545 = DIRECTION('',(1.,0.,0.));
#546 = ADVANCED_FACE('',(#547,#551),#562,.T.);
#547 = FACE_BOUND('',#548,.T.);
#548 = EDGE_LOOP('',(#549,#550));
#549 = ORIENTED_EDGE('',*,*,#435,.T.);
#550 = ORIENTED_EDGE('',*,*,#478,.F.);
#551 = FACE_BOUND('',#552,.T.);
#552 = EDGE_LOOP('',(#553));
#553 = ORIENTED_EDGE('',*,*,#554,.T.);
#554 = EDGE_CURVE('',#555,#555,#557,.T.);
#555 = VERTEX_POINT('',#556);
#556 = CARTESIAN_POINT('',(11.,0.,153.));
#557 = CIRCLE('',#558,11.);
#558 = AXIS2_PLACEMENT_3D('',#559,#560,#561);
#559 = CARTESIAN_POINT('',(0.,0.,153.));
#560 = DIRECTION('',(0.,0.,-1.));
#561 = DIRECTION('',(1.,0.,0.));
#562 = PLANE('',#563);
#563 = AXIS2_PLACEMENT_3D('',#564,#565,#566);
#564 = CARTESIAN_POINT('',(3.55E-15,-0.343810623838,153.));
#565 = DIRECTION('',(0.,0.,1.));
#566 = DIRECTION('',(1.,0.,0.));
#567 = ADVANCED_FACE('',(#568),#587,.T.);
#568 = FACE_BOUND('',#569,.T.);
#569 = EDGE_LOOP('',(#570,#578,#579,#580));
#570 = ORIENTED_EDGE('',*,*,#571,.T.);
#571 = EDGE_CURVE('',#572,#514,#574,.T.);
#572 = VERTEX_POINT('',#573);
#573 = CARTESIAN_POINT('',(16.2,23.043437243616,120.));
#574 = LINE('',#575,#576);
#575 = CARTESIAN_POINT('',(16.2,23.043437243616,120.));
#576 = VECTOR('',#577,1.);
#577 = DIRECTION('',(0.,1.,-2.22044604925E-16));
#578 = ORIENTED_EDGE('',*,*,#513,.T.);
#579 = ORIENTED_EDGE('',*,*,#571,.F.);
#580 = ORIENTED_EDGE('',*,*,#581,.F.);
#581 = EDGE_CURVE('',#572,#572,#582,.T.);
#582 = CIRCLE('',#583,16.2);
#583 = AXIS2_PLACEMENT_3D('',#584,#585,#586);
#584 = CARTESIAN_POINT('',(0.,23.043437243616,120.));
#585 = DIRECTION('',(0.,-1.,2.22044604925E-16));
#586 = DIRECTION('',(1.,0.,0.));
#587 = CYLINDRICAL_SURFACE('',#588,16.2);
#588 = AXIS2_PLACEMENT_3D('',#589,#590,#591);
#589 = CARTESIAN_POINT('',(0.,23.043437243616,120.));
#590 = DIRECTION('',(0.,-1.,2.22044604925E-16));
#591 = DIRECTION('',(1.,0.,0.));
#592 = ADVANCED_FACE('',(#593),#612,.T.);
#593 = FACE_BOUND('',#594,.T.);
#594 = EDGE_LOOP('',(#595,#603,#604,#605));
#595 = ORIENTED_EDGE('',*,*,#596,.T.);
#596 = EDGE_CURVE('',#597,#534,#599,.T.);
#597 = VERTEX_POINT('',#598);
#598 = CARTESIAN_POINT('',(16.2,0.,150.));
#599 = LINE('',#600,#601);
#600 = CARTESIAN_POINT('',(16.2,0.,150.));
#601 = VECTOR('',#602,1.);
#602 = DIRECTION('',(0.,0.,1.));
#603 = ORIENTED_EDGE('',*,*,#533,.T.);
#604 = ORIENTED_EDGE('',*,*,#596,.F.);
#605 = ORIENTED_EDGE('',*,*,#606,.F.);
#606 = EDGE_CURVE('',#597,#597,#607,.T.);
#607 = CIRCLE('',#608,16.2);
#608 = AXIS2_PLACEMENT_3D('',#609,#610,#611);
#609 = CARTESIAN_POINT('',(0.,0.,150.));
#610 = DIRECTION('',(0.,0.,-1.));
#611 = DIRECTION('',(1.,0.,0.));
#612 = CYLINDRICAL_SURFACE('',#613,16.2);
#613 = AXIS2_PLACEMENT_3D('',#614,#615,#616);
#614 = CARTESIAN_POINT('',(0.,0.,150.));
#615 = DIRECTION('',(0.,0.,-1.));
#616 = DIRECTION('',(1.,0.,0.));
#617 = ADVANCED_FACE('',(#618),#637,.F.);
#618 = FACE_BOUND('',#619,.T.);
#619 = EDGE_LOOP('',(#620,#629,#635,#636));
#620 = ORIENTED_EDGE('',*,*,#621,.T.);
#621 = EDGE_CURVE('',#622,#622,#624,.T.);
#622 = VERTEX_POINT('',#623);
#623 = CARTESIAN_POINT('',(11.,0.,150.));
#624 = CIRCLE('',#625,11.);
#625 = AXIS2_PLACEMENT_3D('',#626,#627,#628);
#626 = CARTESIAN_POINT('',(0.,0.,150.));
#627 = DIRECTION('',(0.,0.,-1.));
#628 = DIRECTION('',(1.,0.,0.));
#629 = ORIENTED_EDGE('',*,*,#630,.T.);
#630 = EDGE_CURVE('',#622,#555,#631,.T.);
#631 = LINE('',#632,#633);
#632 = CARTESIAN_POINT('',(11.,0.,148.));
#633 = VECTOR('',#634,1.);
#634 = DIRECTION('',(0.,0.,1.));
#635 = ORIENTED_EDGE('',*,*,#554,.F.);
#636 = ORIENTED_EDGE('',*,*,#630,.F.);
#637 = CYLINDRICAL_SURFACE('',#638,11.);
#638 = AXIS2_PLACEMENT_3D('',#639,#640,#641);
#639 = CARTESIAN_POINT('',(0.,0.,148.));
#640 = DIRECTION('',(-0.,-0.,-1.));
#641 = DIRECTION('',(1.,0.,0.));
#642 = ADVANCED_FACE('',(#643,#646),#657,.F.);
#643 = FACE_BOUND('',#644,.F.);
#644 = EDGE_LOOP('',(#645));
#645 = ORIENTED_EDGE('',*,*,#581,.F.);
#646 = FACE_BOUND('',#647,.F.);
#647 = EDGE_LOOP('',(#648));
#648 = ORIENTED_EDGE('',*,*,#649,.F.);
#649 = EDGE_CURVE('',#650,#650,#652,.T.);
#650 = VERTEX_POINT('',#651);
#651 = CARTESIAN_POINT('',(5.875,23.043437243616,120.));
#652 = CIRCLE('',#653,5.875);
#653 = AXIS2_PLACEMENT_3D('',#654,#655,#656);
#654 = CARTESIAN_POINT('',(0.,23.043437243616,120.));
#655 = DIRECTION('',(0.,1.,-2.22044604925E-16));
#656 = DIRECTION('',(1.,0.,0.));
#657 = PLANE('',#658);
#658 = AXIS2_PLACEMENT_3D('',#659,#660,#661);
#659 = CARTESIAN_POINT('',(-24.99999999999,23.043437243616,0.));
#660 = DIRECTION('',(0.,1.,0.));
#661 = DIRECTION('',(1.,0.,0.));
#662 = ADVANCED_FACE('',(#663,#666),#669,.F.);
#663 = FACE_BOUND('',#664,.F.);
#664 = EDGE_LOOP('',(#665));
#665 = ORIENTED_EDGE('',*,*,#606,.F.);
#666 = FACE_BOUND('',#667,.F.);
#667 = EDGE_LOOP('',(#668));
#668 = ORIENTED_EDGE('',*,*,#621,.T.);
#669 = PLANE('',#670);
#670 = AXIS2_PLACEMENT_3D('',#671,#672,#673);
#671 = CARTESIAN_POINT('',(3.55E-15,-0.343810623838,150.));
#672 = DIRECTION('',(0.,0.,1.));
#673 = DIRECTION('',(1.,0.,0.));
#674 = ADVANCED_FACE('',(#675),#694,.F.);
#675 = FACE_BOUND('',#676,.T.);
#676 = EDGE_LOOP('',(#677,#686,#692,#693));
#677 = ORIENTED_EDGE('',*,*,#678,.F.);
#678 = EDGE_CURVE('',#679,#679,#681,.T.);
#679 = VERTEX_POINT('',#680);
#680 = CARTESIAN_POINT('',(5.875,23.543437243616,120.));
#681 = CIRCLE('',#682,5.875);
#682 = AXIS2_PLACEMENT_3D('',#683,#684,#685);
#683 = CARTESIAN_POINT('',(0.,23.543437243616,120.));
#684 = DIRECTION('',(0.,-1.,2.22044604925E-16));
#685 = DIRECTION('',(1.,0.,0.));
#686 = ORIENTED_EDGE('',*,*,#687,.T.);
#687 = EDGE_CURVE('',#679,#650,#688,.T.);
#688 = LINE('',#689,#690);
#689 = CARTESIAN_POINT('',(5.875,23.543437243616,120.));
#690 = VECTOR('',#691,1.);
#691 = DIRECTION('',(0.,-1.,2.22044604925E-16));
#692 = ORIENTED_EDGE('',*,*,#649,.F.);
#693 = ORIENTED_EDGE('',*,*,#687,.F.);
#694 = CYLINDRICAL_SURFACE('',#695,5.875);
#695 = AXIS2_PLACEMENT_3D('',#696,#697,#698);
#696 = CARTESIAN_POINT('',(0.,23.543437243616,120.));
#697 = DIRECTION('',(0.,1.,-2.22044604925E-16));
#698 = DIRECTION('',(1.,0.,0.));
#699 = ADVANCED_FACE('',(#700),#703,.F.);
#700 = FACE_BOUND('',#701,.T.);
#701 = EDGE_LOOP('',(#702));
#702 = ORIENTED_EDGE('',*,*,#678,.T.);
#703 = PLANE('',#704);
#704 = AXIS2_PLACEMENT_3D('',#705,#706,#707);
#705 = CARTESIAN_POINT('',(-5.818894181019E-16,23.543437243616,120.));
#706 = DIRECTION('',(0.,1.,-3.491336508611E-16));
#707 = DIRECTION('',(0.,3.491336508611E-16,1.));
#708 = ( GEOMETRIC_REPRESENTATION_CONTEXT(3) 
GLOBAL_UNCERTAINTY_ASSIGNED_CONTEXT((#712)) GLOBAL_UNIT_ASSIGNED_CONTEXT
((#709,#710,#711)) REPRESENTATION_CONTEXT('Context #1',
  '3D Context with UNIT and UNCERTAINTY') );
#709 = ( LENGTH_UNIT() NAMED_UNIT(*) SI_UNIT(.MILLI.,.METRE.) );
#710 = ( NAMED_UNIT(*) PLANE_ANGLE_UNIT() SI_UNIT($,.RADIAN.) );
#711 = ( NAMED_UNIT(*) SI_UNIT($,.STERADIAN.) SOLID_ANGLE_UNIT() );
#712 = UNCERTAINTY_MEASURE_WITH_UNIT(LENGTH_MEASURE(5.E-07),#709,
  'distance_accuracy_value','confusion accuracy');
#713 = PRODUCT_RELATED_PRODUCT_CATEGORY('part',$,(#7));
#714 = MECHANICAL_DESIGN_GEOMETRIC_PRESENTATION_REPRESENTATION('',(#715)
  ,#708);
#715 = STYLED_ITEM('color',(#716),#15);
#716 = PRESENTATION_STYLE_ASSIGNMENT((#717,#725));
#717 = SURFACE_STYLE_USAGE(.BOTH.,#718);
#718 = SURFACE_SIDE_STYLE('',(#719,#723));
#719 = SURFACE_STYLE_FILL_AREA(#720);
#720 = FILL_AREA_STYLE('',(#721));
#721 = FILL_AREA_STYLE_COLOUR('',#722);
#722 = COLOUR_RGB('',0.678431390124,0.709803936702,0.741176476869);
#723 = SURFACE_STYLE_RENDERING_WITH_PROPERTIES(.NORMAL_SHADING.,#722,(
    #724));
#724 = SURFACE_STYLE_TRANSPARENT(0.100000023842);
#725 = CURVE_STYLE('',#726,POSITIVE_LENGTH_MEASURE(0.1),#727);
#726 = DRAUGHTING_PRE_DEFINED_CURVE_FONT('continuous');
#727 = COLOUR_RGB('',9.803921802644E-02,9.803921802644E-02,
  9.803921802644E-02);
ENDSEC;
END-ISO-10303-21;
